<svg version="1.1" xmlns="http://www.w3.org/2000/svg" xmlns:xlink="http://www.w3.org/1999/xlink" width="183.95454" height="158.08313" viewBox="0,0,183.95454,158.08313"><g transform="translate(-148.11351,-100.63813)"><g data-paper-data="{&quot;isPaintingLayer&quot;:true}" fill-rule="nonzero" stroke="#000000" stroke-linecap="butt" stroke-linejoin="miter" stroke-miterlimit="10" stroke-dasharray="" stroke-dashoffset="0" style="mix-blend-mode: normal"><path d="M310.74225,131.61413l-27.53938,46.85031l45.61023,20.65008l-56.35368,11.13911c0,0 0.04619,46.45568 0.04619,46.45568l-38.89682,-29.42629l-31.92223,25.1206l1.15533,-37.51833l-51.65499,-16.71108l52.09284,-19.0042l-39.19473,-35.10787l54.06134,9.45379l19.89908,-50.22523l20.58067,49.24812z" fill="#ff0000" stroke-width="2"/><path d="M294.99061,145.74299l-21.26887,36.18285l35.22513,15.94821l-43.52238,8.60282l0.03567,35.87808l-30.04032,-22.72615l-24.65378,19.40083l0.89227,-28.97569l-39.89355,-12.9061l40.2317,-14.67709l-30.27039,-27.11407l41.75199,7.30123l15.36821,-38.78933l15.89461,38.0347z" fill="#ff7b00" stroke-width="0"/><path d="M280.55772,157.22053l-15.63337,26.59568l25.89171,11.7225l-31.99049,6.32338l0.02622,26.37165l-22.08069,-16.70452l-18.1214,14.2603l0.65585,-21.29816l-29.32316,-9.48644l29.57172,-10.78818l-22.2498,-19.9298l30.68918,5.36666l11.29618,-28.51153l11.6831,27.95685z" fill="#ffb900" stroke-width="0"/></g></g></svg>