<?xml-stylesheet type="text/css" href="style.css" ?><svg version="1.1" xmlns="http://www.w3.org/2000/svg" xmlns:xlink="http://www.w3.org/1999/xlink" width="198.9695" height="58.54649" viewBox="0,0,198.9695,58.54649"><defs><linearGradient x1="314.51138" y1="155.43089" x2="314.51138" y2="162.14235" gradientUnits="userSpaceOnUse" id="color-1"><stop offset="0" stop-color="#457d33"/><stop offset="1" stop-color="#45673b"/></linearGradient><linearGradient x1="233.80918" y1="187.55594" x2="233.80918" y2="206.165" gradientUnits="userSpaceOnUse" id="color-2"><stop offset="0" stop-color="#458033"/><stop offset="1" stop-color="#446739"/></linearGradient><linearGradient x1="234.90827" y1="149.62018" x2="234.90827" y2="174.71513" gradientUnits="userSpaceOnUse" id="color-3"><stop offset="0" stop-color="#458033"/><stop offset="1" stop-color="#45653c"/></linearGradient><linearGradient x1="240" y1="173.44107" x2="240" y2="192.66027" gradientUnits="userSpaceOnUse" id="color-4"><stop offset="0" stop-color="#3d712d"/><stop offset="1" stop-color="#45673b"/></linearGradient></defs><g transform="translate(-156.54691,-148.62018)"><g data-paper-data="{&quot;isPaintingLayer&quot;:true}" fill-rule="nonzero" stroke="#000000" stroke-linecap="butt" stroke-linejoin="miter" stroke-miterlimit="10" stroke-dasharray="" stroke-dashoffset="0" style="mix-blend-mode: normal"><g id="canon"><path d="M274.54766,162.14235v-6.71146c0,0 62.26111,0 73.46459,0c3.32297,0 6.22908,1.16877 6.22908,1.16877l0.23376,3.67264c0,0 -3.0022,1.40254 -6.53415,1.40254c-11.46279,0 -73.39328,0.46751 -73.39328,0.46751z" fill="url(#color-1)" stroke-width="2"/></g><path d="M159.83054,189.08128l7.32159,-1.52534c0,0 -0.76682,12.96828 6.99776,14.15581c9.08143,1.38893 122.94575,0.35886 122.94575,0.35886c0,0 3.24887,-9.90199 5.19623,-12.3233c1.49671,-1.86098 5.49594,-0.9711 5.49594,-0.9711l-6.10133,17.38879l-133.44735,-0.31379z" fill="url(#color-2)" stroke-width="2"/><path d="M187.98616,162.30614l-0.9152,-9.76213c0,0 58.99661,-6.57862 89.3845,0c14.15276,3.06391 0,21.9648 0,21.9648c0,0 -37.1125,0.60514 -57.7265,-0.25732c-3.37627,-0.14126 -7.83529,-11.84895 -10.09085,-11.92567c-8.17472,-0.27805 -20.65196,-0.01968 -20.65196,-0.01968z" fill="url(#color-3)" stroke-width="2"/><path d="M165.93187,193.19967c0,-5.47572 4.43894,-9.91466 9.91466,-9.91466c5.47572,0 9.91466,4.43894 9.91466,9.91466c0,5.47572 -4.43895,9.91467 -9.91466,9.91467c-5.47572,0 -9.91466,-4.43895 -9.91466,-9.91467z" fill="#458033" stroke-width="2"/><path d="M205.40439,192.70847c0,-5.47572 4.43894,-9.91466 9.91466,-9.91466c5.47572,0 9.91466,4.43894 9.91466,9.91466c0,5.47572 -4.43895,9.91466 -9.91466,9.91466c-5.47572,0 -9.91466,-4.43895 -9.91466,-9.91466z" fill="#458033" stroke-width="2"/><path d="M244.14785,193.31861c0,-5.47572 4.43894,-9.91466 9.91466,-9.91466c5.47571,0 9.91467,4.43894 9.91467,9.91466c0,5.47572 -4.43895,9.91467 -9.91467,9.91467c-5.47572,0 -9.91466,-4.43895 -9.91466,-9.91467z" fill="#458033" stroke-width="2"/><path d="M283.01023,193.43754c0,-5.47572 4.43895,-9.91466 9.91466,-9.91466c5.47571,0 9.91467,4.43895 9.91467,9.91466c0,5.47572 -4.43895,9.91466 -9.91467,9.91466c-5.47571,0 -9.91466,-4.43895 -9.91466,-9.91466z" fill="#458033" stroke-width="2"/><path d="M185.88013,192.70847c0,-5.47572 4.43894,-9.91466 9.91466,-9.91466c5.47572,0 9.91466,4.43894 9.91466,9.91466c0,5.47572 -4.43895,9.91466 -9.91466,9.91466c-5.47572,0 -9.91466,-4.43895 -9.91466,-9.91466z" fill="#458033" stroke-width="2"/><path d="M224.74252,192.82741c0,-5.47572 4.43894,-9.91466 9.91466,-9.91466c5.47572,0 9.91466,4.43894 9.91466,9.91466c0,5.47572 -4.43895,9.91467 -9.91466,9.91467c-5.47572,0 -9.91466,-4.43895 -9.91466,-9.91467z" fill="#458033" stroke-width="2"/><path d="M263.48597,193.43754c0,-5.47572 4.43894,-9.91466 9.91466,-9.91466c5.47571,0 9.91467,4.43895 9.91467,9.91466c0,5.47572 -4.43895,9.91466 -9.91467,9.91466c-5.47571,0 -9.91466,-4.43895 -9.91466,-9.91466z" fill="#458033" stroke-width="2"/><path d="M170.32174,193.16608c0,-3.0327 2.4585,-5.4912 5.4912,-5.4912c3.0327,0 5.49119,2.4585 5.49119,5.4912c0,3.0327 -2.45849,5.4912 -5.49119,5.4912c-3.0327,0 -5.4912,-2.45849 -5.4912,-5.4912z" fill="#000000" stroke-width="0"/><path d="M190.27,192.97995c0,-3.0327 2.45849,-5.4912 5.4912,-5.4912c3.0327,0 5.4912,2.45849 5.4912,5.4912c0,3.0327 -2.45849,5.4912 -5.4912,5.4912c-3.0327,0 -5.4912,-2.45849 -5.4912,-5.4912z" fill="#000000" stroke-width="0"/><path d="M209.91319,192.79382c0,-3.0327 2.4585,-5.4912 5.4912,-5.4912c3.0327,0 5.4912,2.45849 5.4912,5.4912c0,3.0327 -2.45849,5.4912 -5.4912,5.4912c-3.0327,0 -5.4912,-2.45849 -5.4912,-5.4912z" fill="#000000" stroke-width="0"/><path d="M228.94625,192.91275c0,-3.0327 2.4585,-5.4912 5.4912,-5.4912c3.0327,0 5.49119,2.45849 5.49119,5.4912c0,3.0327 -2.45849,5.4912 -5.49119,5.4912c-3.0327,0 -5.4912,-2.45849 -5.4912,-5.4912z" fill="#000000" stroke-width="0"/><path d="M248.58945,193.64182c0,-3.0327 2.45849,-5.4912 5.4912,-5.4912c3.03271,0 5.4912,2.45849 5.4912,5.4912c0,3.0327 -2.45849,5.4912 -5.4912,5.4912c-3.0327,0 -5.4912,-2.45849 -5.4912,-5.4912z" fill="#000000" stroke-width="0"/><path d="M267.92758,193.76076c0,-3.0327 2.45849,-5.4912 5.4912,-5.4912c3.03271,0 5.4912,2.45849 5.4912,5.4912c0,3.0327 -2.45849,5.4912 -5.4912,5.4912c-3.03271,0 -5.4912,-2.45849 -5.4912,-5.4912z" fill="#000000" stroke-width="0"/><path d="M287.57077,193.87969c0,-3.0327 2.45849,-5.4912 5.4912,-5.4912c3.03271,0 5.4912,2.4585 5.4912,5.4912c0,3.0327 -2.45849,5.49119 -5.4912,5.49119c-3.03271,0 -5.4912,-2.45849 -5.4912,-5.49119z" fill="#000000" stroke-width="0"/><path d="M157.78456,192.66027l3.35573,-17.99893l148.87248,-1.22027l12.20266,11.89759l-25.41063,3.68162l-25.00007,3.07361l-20.75769,-3.01609l-20.74293,3.44984l-16.17204,-2.96409l-17.06065,2.78388l-17.41156,-2.73784z" fill="url(#color-4)" stroke-width="2"/></g></g></svg>