<svg version="1.1" xmlns="http://www.w3.org/2000/svg" xmlns:xlink="http://www.w3.org/1999/xlink" width="14.07795" height="23.89463" viewBox="0,0,14.07795,23.89463"><g transform="translate(-226.22417,-166.62176)"><g data-paper-data="{&quot;isPaintingLayer&quot;:true}" fill="#8c8c8c" fill-rule="nonzero" stroke="#000000" stroke-width="0" stroke-linecap="butt" stroke-linejoin="miter" stroke-miterlimit="10" stroke-dasharray="" stroke-dashoffset="0" style="mix-blend-mode: normal"><path d="M234.4007,190.51636c-1.09968,-0.03113 -2.56834,-2.77493 -2.56834,-2.77493c0,0 -3.83015,-0.19985 -4.41823,-2.06093c-0.4408,-1.39502 1.17392,-4.32465 1.17392,-4.32465c0,0 -2.23134,-2.44747 -2.36007,-4.72562c-0.12965,-2.2942 3.09021,-3.78615 3.09021,-3.78615c0,0 -1.1376,-3.46776 -0.15704,-5.46914c0.97956,-1.99933 5.1712,0.73102 5.1712,0.73102c0,0 5.96319,-3.51125 5.85624,0.26753c-0.02623,0.92669 -1.60304,4.40234 -1.60304,4.40234c0,0 1.81181,2.02726 1.71264,4.55389c-0.07007,1.7853 -2.30278,4.07274 -2.30278,4.07274c0,0 2.24864,2.57953 1.77422,5.3097c-0.22518,1.29584 -2.72245,1.63331 -2.72245,1.63331c0,0 -2.36,2.17899 -2.64648,2.17088z"/></g></g></svg>